<?xml version="1.0" standalone="no"?>
<!DOCTYPE svg PUBLIC "-//W3C//DTD SVG 20010904//EN"
 "http://www.w3.org/TR/2001/REC-SVG-20010904/DTD/svg10.dtd">
<svg version="1.0" xmlns="http://www.w3.org/2000/svg"
 width="604.000000pt" height="604.000000pt" viewBox="0 0 604.000000 604.000000"
 preserveAspectRatio="xMidYMid meet">
<metadata>
Created by potrace 1.11, written by Peter Selinger 2001-2013
</metadata>
<g transform="translate(0.000000,604.000000) scale(0.100000,-0.100000)"
fill="#000000" stroke="none">
<path d="M2 3623 l3 -2418 105 -18 c58 -11 115 -21 127 -23 15 -3 23 -12 23
-24 0 -22 -30 -38 -88 -47 -18 -3 -35 -10 -39 -16 -4 -7 7 -8 33 -3 21 5 51
10 65 13 22 4 26 1 25 -16 0 -11 -9 -30 -19 -42 -16 -18 -26 -21 -63 -15 -59
8 -56 1 7 -14 42 -10 53 -10 59 1 12 18 24 -52 18 -106 -3 -24 -1 -48 5 -54 8
-8 8 -14 0 -22 -8 -8 -6 -19 4 -41 12 -23 13 -32 4 -37 -7 -4 -70 -6 -141 -3
-113 4 -130 3 -130 -11 0 -13 10 -15 57 -11 66 5 61 -1 -9 -11 -56 -7 -69 -35
-17 -35 17 0 28 -4 24 -10 -3 -5 -17 -10 -31 -10 l-24 0 0 -325 0 -325 994 0
994 0 6 30 c4 24 15 35 52 50 71 31 95 27 161 -30 32 -27 61 -50 66 -50 17 0
4 20 -30 46 -21 15 -39 32 -41 36 -2 4 -8 8 -13 8 -5 0 -34 25 -65 55 -31 30
-60 55 -65 55 -11 0 -129 79 -129 87 0 10 148 -5 265 -27 61 -12 162 -38 225
-58 110 -34 121 -36 265 -36 126 0 170 4 275 27 73 16 156 27 199 27 86 0 90
-2 286 -136 l123 -84 1236 0 1236 0 0 555 0 555 -37 0 c-36 1 -37 2 -19 15 11
8 17 17 15 19 -12 13 -315 -28 -434 -58 -59 -14 -120 -25 -260 -45 -137 -20
-228 -31 -231 -28 -2 1 50 22 114 45 194 71 336 135 370 166 22 19 35 21 160
20 75 0 153 -5 172 -11 19 -6 61 -14 93 -17 l57 -6 0 65 c0 58 -2 65 -19 65
-11 0 -23 5 -26 10 -3 6 -20 10 -38 10 -17 0 -49 6 -72 14 -69 23 -121 33
-141 25 -18 -7 -18 -8 2 -8 11 -1 29 -8 40 -16 10 -8 29 -15 41 -15 12 0 25
-4 28 -10 8 -13 -4 -13 -82 2 -42 7 -67 18 -71 27 -3 9 -16 27 -29 41 l-23 25
37 6 c38 5 38 5 10 13 -18 6 -32 4 -43 -5 -13 -10 -17 -10 -24 1 -4 7 -15 10
-23 7 -9 -3 -33 -1 -54 5 -33 9 -35 12 -18 18 12 4 66 11 120 15 105 8 144 18
113 30 -12 5 -19 23 -23 63 -5 55 -12 106 -56 442 -11 85 -24 190 -30 232 -13
103 -27 141 -28 75 -1 -33 -6 -49 -16 -53 -14 -6 -14 -8 1 -18 15 -11 12 -15
-20 -34 -21 -12 -39 -22 -41 -22 -2 0 -77 -36 -167 -79 -227 -110 -337 -161
-382 -177 -22 -8 -44 -18 -50 -23 -6 -5 -52 -27 -103 -50 -51 -22 -194 -90
-318 -151 -124 -60 -232 -110 -239 -110 -6 0 -16 -4 -21 -9 -25 -23 -604 -288
-616 -280 -8 5 4 15 37 29 27 12 56 26 64 31 8 5 33 18 55 28 22 11 32 20 23
20 -9 1 -29 -5 -45 -13 -15 -8 -56 -27 -91 -42 -69 -31 -51 -33 -227 21 -49
15 -114 34 -142 43 l-53 15 50 26 c28 15 60 35 71 45 20 17 24 17 81 1 33 -9
62 -14 65 -11 3 2 -15 10 -39 17 -42 12 -76 34 -67 43 2 2 26 15 53 29 42 21
46 26 28 31 -14 5 -23 19 -28 43 -6 31 -3 38 22 59 31 25 54 31 54 14 0 -5 5
-10 11 -10 8 0 8 4 0 14 -23 28 15 65 53 50 12 -5 15 -2 10 9 -7 20 33 44 49
28 16 -16 37 -14 37 4 0 15 10 18 85 30 45 7 125 54 125 73 0 17 -4 16 -53
-19 -36 -25 -60 -33 -122 -40 -78 -8 -100 -6 -90 11 3 5 -1 23 -10 41 -13 23
-20 29 -33 23 -9 -5 -39 -8 -67 -8 -46 1 -48 0 -20 -9 47 -15 55 -26 55 -77 0
-47 -1 -48 -67 -98 -38 -28 -98 -73 -134 -100 -82 -62 -157 -104 -170 -96 -6
3 -10 31 -9 63 2 75 1 86 -7 77 -4 -4 -8 -54 -9 -111 l-3 -105 -59 -72 c-33
-40 -79 -92 -104 -114 -39 -36 -55 -43 -118 -54 -40 -7 -102 -13 -138 -14
l-64 -1 -44 49 c-24 27 -41 53 -38 58 3 4 23 8 44 8 32 0 40 4 45 23 4 12 15
41 26 64 19 43 26 96 11 78 -5 -6 -17 -36 -28 -69 -22 -67 -25 -69 -145 -91
-182 -32 -374 -10 -437 52 -7 7 -17 13 -21 13 -13 0 -117 107 -191 195 -58 70
-170 229 -170 243 0 2 -20 35 -45 72 -25 37 -45 70 -45 73 0 3 -18 34 -40 68
-22 35 -43 72 -46 82 -4 9 -10 17 -15 17 -5 0 -9 5 -9 12 0 6 -11 26 -25 44
-14 18 -25 36 -25 39 0 4 -7 13 -15 21 -8 8 -19 23 -24 32 -5 9 -12 14 -15 11
-4 -3 7 -23 24 -44 16 -21 30 -43 30 -49 0 -6 16 -35 35 -65 19 -30 32 -58 29
-62 -2 -4 -24 5 -47 21 -23 15 -59 36 -79 46 -21 10 -38 21 -38 26 0 4 -6 8
-14 8 -8 0 -16 5 -18 12 -2 6 -10 9 -17 7 -8 -3 20 -27 63 -54 42 -27 76 -53
76 -58 0 -4 -19 -16 -42 -27 -54 -23 -38 -26 24 -3 44 16 49 16 87 -1 32 -15
49 -35 92 -105 29 -47 63 -99 76 -115 16 -18 23 -37 20 -50 -18 -73 -18 -72
-3 -42 l13 29 33 -44 c40 -55 63 -99 56 -107 -3 -3 -32 -6 -65 -6 -45 -1 -64
4 -80 18 -12 11 -24 17 -27 13 -3 -3 -1 -35 5 -72 15 -102 -8 -144 -112 -196
-74 -38 -183 -53 -341 -47 -139 6 -275 37 -421 98 -170 71 -200 81 -269 91
-74 10 -90 7 -61 -15 28 -20 2 -28 -38 -11 -19 8 -54 33 -77 55 -47 45 -51 66
-29 136 12 41 11 44 -24 104 -41 68 -47 117 -22 180 57 150 120 374 160 570
23 113 53 201 94 272 104 184 203 327 267 388 113 107 269 225 409 310 78 48
97 55 140 54 35 0 63 -8 95 -26 25 -15 64 -32 88 -39 23 -7 42 -15 42 -19 0
-4 15 -13 33 -20 56 -22 151 -68 185 -91 23 -15 32 -17 32 -7 0 14 -130 88
-154 88 -8 0 -16 3 -18 8 -4 9 -118 96 -147 111 -17 10 -20 9 -15 -4 4 -8 12
-15 19 -15 12 0 45 -31 45 -43 0 -13 -125 62 -128 77 -2 7 12 24 30 37 18 13
39 29 45 35 37 35 84 55 115 49 53 -11 113 -51 159 -106 35 -42 45 -49 53 -36
6 8 38 27 71 42 33 15 80 40 104 57 50 34 101 43 128 22 24 -18 61 -17 113 1
60 21 63 20 57 -21 -5 -32 8 -84 22 -84 3 0 6 33 7 73 0 60 6 83 33 138 51
106 138 179 213 179 27 0 37 -6 51 -30 23 -37 16 -102 -23 -220 -16 -47 -33
-111 -39 -144 -14 -77 -4 -94 35 -58 59 54 87 67 197 89 36 7 35 -8 -4 -48
-17 -17 -28 -33 -25 -36 2 -3 29 -8 58 -12 44 -5 53 -9 53 -25 0 -14 -10 -22
-32 -28 -18 -5 -33 -13 -33 -19 0 -18 30 -21 54 -6 46 30 35 3 -20 -50 -33
-32 -54 -61 -52 -71 4 -21 38 -29 38 -8 0 8 35 43 78 78 42 34 79 66 80 70 4
8 42 11 42 3 0 -20 -28 -55 -61 -76 -22 -13 -37 -29 -35 -34 6 -15 -15 -128
-26 -142 -5 -6 -28 -14 -51 -18 -34 -5 -51 -16 -88 -57 -39 -44 -48 -49 -65
-40 -14 8 -23 7 -36 -5 -9 -8 -36 -19 -59 -24 -23 -6 -55 -19 -70 -30 -47 -33
-86 -43 -118 -29 -26 10 -94 117 -165 258 -9 17 -22 33 -29 33 -27 3 -54 -4
-91 -23 -32 -17 -43 -18 -59 -9 -34 22 -27 6 22 -47 l48 -52 -3 -75 c-1 -41 2
-92 6 -112 21 -100 22 -113 5 -107 -13 5 -15 -7 -15 -87 0 -97 -8 -127 -30
-114 -7 4 -4 -7 6 -25 10 -18 97 -112 192 -209 160 -162 232 -253 232 -291 0
-13 21 -16 141 -15 138 1 142 1 150 23 5 13 13 20 19 17 5 -3 10 -2 10 2 0 15
142 125 149 116 16 -19 27 -61 27 -100 -1 -39 1 -43 29 -49 17 -3 36 -11 43
-16 9 -8 12 -1 12 31 0 22 -4 41 -8 41 -10 0 -52 117 -52 143 0 26 31 21 70
-13 37 -31 61 -40 40 -15 -16 19 -18 18 62 53 36 17 69 35 72 41 4 6 16 11 26
11 11 0 44 11 74 25 30 14 59 25 64 25 5 0 46 18 91 40 45 22 85 40 89 40 5 0
44 18 88 40 43 22 85 40 92 40 6 0 12 5 12 10 0 6 9 10 20 10 11 0 39 9 62 19
24 11 58 26 76 33 17 7 32 16 32 20 0 5 7 8 15 8 8 0 23 4 33 9 9 5 31 15 47
22 17 7 37 19 46 26 22 18 47 7 54 -25 4 -20 19 -33 53 -50 46 -22 90 -28 265
-34 48 -2 66 -6 62 -15 -3 -8 14 -6 48 8 29 11 65 25 80 31 19 7 25 14 19 20
-13 13 -54 0 -46 -14 7 -10 -192 -5 -329 8 -64 7 -67 10 -92 101 -16 57 -13
73 17 105 24 26 29 28 84 22 41 -4 90 1 164 16 57 12 125 20 150 19 25 -1 57
3 72 9 80 32 413 262 381 262 -12 0 -36 -17 -68 -47 -8 -7 -18 -13 -23 -13 -4
0 -35 -20 -68 -45 -32 -24 -62 -45 -66 -45 -4 0 -33 -16 -63 -35 -69 -45 -143
-77 -150 -66 -3 5 14 16 37 26 48 19 181 96 186 107 2 5 10 8 18 8 8 0 14 4
14 8 0 4 15 16 33 27 17 10 34 21 37 24 16 19 110 91 118 91 5 0 15 7 22 15
34 41 -46 -5 -130 -74 -45 -38 -125 -91 -135 -91 -3 0 11 20 32 45 20 25 43
45 50 45 7 0 17 9 23 19 13 25 206 166 255 187 20 8 53 14 73 12 l37 -3 -30
-17 -30 -17 39 -1 c30 0 37 -3 32 -15 -3 -10 1 -15 13 -15 26 0 30 -7 20 -48
-6 -27 -5 -40 5 -47 19 -15 39 -82 29 -99 -5 -9 -35 -30 -68 -47 -109 -58
-140 -75 -165 -91 -14 -8 -72 -40 -130 -71 -58 -30 -139 -76 -180 -101 -41
-25 -81 -44 -90 -41 -9 3 -19 -5 -27 -20 -9 -21 -9 -25 4 -25 11 0 14 -7 11
-25 -7 -32 3 -30 132 34 52 26 145 72 205 101 61 29 124 63 140 76 49 37 195
106 211 100 7 -3 14 -13 14 -21 0 -9 4 -14 9 -11 5 4 6 20 1 39 -12 46 -43
347 -37 353 3 3 14 3 25 0 17 -6 21 -22 32 -117 6 -61 9 -122 5 -136 -3 -14
-2 -30 3 -36 12 -16 35 -252 27 -278 -4 -13 -1 -25 9 -32 12 -9 17 -43 22
-149 4 -76 10 -138 14 -138 5 0 10 -21 13 -47 3 -27 11 -84 18 -128 7 -44 12
-95 12 -113 0 -17 4 -32 9 -32 4 0 9 -19 9 -42 1 -24 3 -35 6 -26 2 10 -1 64
-7 120 -7 57 -14 147 -15 201 -2 53 -8 112 -14 130 -6 17 -13 57 -15 87 -3 30
-10 93 -17 140 -6 47 -11 99 -10 115 0 17 -4 57 -10 89 -6 33 -12 84 -15 115
-7 99 -14 165 -23 221 -5 30 -7 58 -5 61 5 9 -22 19 -52 19 -39 0 -28 27 14
34 49 8 207 8 215 -1 4 -3 2 -12 -5 -20 -9 -11 -8 -13 2 -11 7 2 14 -2 17 -9
2 -7 -8 -11 -29 -10 l-33 2 1 -55 c2 -64 27 -298 56 -520 12 -85 23 -177 25
-205 3 -27 9 -54 14 -59 5 -6 9 -28 9 -50 0 -51 37 -286 46 -295 9 -8 -5 150
-17 191 -5 18 -9 53 -9 79 0 25 -4 70 -10 100 -5 30 -12 97 -14 149 -4 85 -32
316 -41 330 -1 3 2 16 7 30 13 36 28 8 28 -57 0 -28 4 -53 9 -55 5 -1 12 -43
15 -93 3 -49 6 -91 7 -92 1 -2 3 -7 4 -13 1 -5 4 -13 5 -17 1 -5 3 -27 4 -50
0 -24 6 -43 11 -43 12 0 16 108 4 116 -5 3 -9 23 -9 45 0 22 -5 49 -11 60 -8
15 -7 24 2 35 10 12 10 17 1 23 -17 10 -28 121 -12 121 15 0 100 -61 100 -72
0 -13 27 -9 40 7 7 8 21 15 31 15 11 0 19 7 19 15 0 20 -12 19 -42 -5 l-26
-20 -37 35 c-20 19 -42 35 -49 35 -25 0 -35 24 -20 44 8 11 14 16 14 10 0 -5
10 -9 23 -10 12 0 48 -3 80 -8 l57 -7 0 436 0 436 -102 -6 c-57 -3 -119 -7
-138 -10 -19 -2 -44 1 -55 5 -14 6 -15 9 -5 10 8 0 78 7 155 15 77 8 141 15
143 15 1 0 2 434 2 965 l0 965 -3020 0 -3020 0 2 -2417z m5133 2297 c28 -7 55
-13 62 -14 7 -1 16 -5 19 -9 4 -4 17 -7 28 -7 33 0 96 -20 96 -30 0 -13 -69
-13 -123 0 -23 5 -144 12 -269 16 -126 3 -228 10 -228 14 0 9 72 29 120 32
111 9 252 8 295 -2z m-438 -36 c-3 -3 -12 -4 -19 -1 -8 3 -5 6 6 6 11 1 17 -2
13 -5z m217 -140 c8 -3 12 -12 10 -19 -4 -10 6 -15 33 -19 99 -15 158 -28 161
-37 2 -5 21 -9 43 -9 21 0 39 -4 39 -10 0 -5 3 -9 8 -9 4 1 22 1 40 0 25 -1
32 -5 32 -21 0 -18 7 -20 74 -20 40 0 93 7 117 15 37 14 44 14 51 1 4 -8 23
-18 41 -21 17 -4 37 -10 42 -14 6 -3 12 -6 15 -7 42 -8 60 -19 60 -36 0 -10 4
-17 10 -13 5 3 7 12 3 20 -3 8 0 15 7 15 10 0 10 3 0 15 -7 9 -10 18 -6 22 9
9 35 -29 29 -43 -2 -7 7 -20 21 -29 14 -9 28 -26 32 -37 3 -11 17 -36 30 -55
13 -20 21 -39 19 -43 -3 -5 -1 -12 5 -15 6 -4 8 -16 5 -28 -5 -16 -4 -18 3 -8
8 11 13 8 27 -13 22 -33 23 -100 3 -124 -8 -9 -17 -24 -20 -33 -3 -8 -24 -21
-47 -28 -33 -9 -41 -17 -41 -35 0 -12 -6 -23 -12 -24 -7 0 -35 -2 -61 -3 -47
-2 -49 -3 -69 -48 -12 -25 -27 -49 -32 -53 -21 -15 -94 -8 -111 9 -19 18 -92
20 -109 2 -6 -5 -27 -9 -48 -9 -26 0 -38 -4 -38 -14 0 -18 -139 -32 -168 -17
-22 12 -42 -3 -42 -32 0 -10 -12 -43 -27 -73 -25 -52 -42 -68 -44 -41 -8 109
-10 119 -24 129 -5 4 -13 2 -17 -5 -6 -9 -8 -9 -8 1 0 7 -14 12 -35 12 -19 0
-35 -4 -35 -10 0 -5 -13 -10 -29 -10 -21 0 -32 -6 -36 -20 -5 -16 -15 -20 -54
-20 -26 0 -53 6 -59 12 -17 17 -31 -5 -31 -52 0 -19 -6 -55 -14 -79 l-14 -44
-12 117 c-14 135 -26 176 -49 176 -13 0 -14 -2 -4 -9 10 -6 10 -10 -2 -20 -12
-10 -15 -8 -18 11 -2 18 -10 24 -38 26 -23 2 -43 12 -58 30 l-22 27 -20 -25
c-13 -17 -20 -41 -20 -74 0 -41 -5 -53 -30 -77 -37 -36 -50 -37 -50 -4 0 16
-6 25 -15 25 -11 0 -15 11 -15 40 0 34 -3 40 -21 40 -18 0 -20 5 -18 48 3 43
1 48 -24 60 -16 8 -33 26 -38 40 -6 15 -14 29 -19 32 -6 3 -11 20 -13 36 -2
17 -13 45 -25 61 -28 39 -28 47 2 66 13 9 33 36 45 61 22 48 30 53 49 34 9 -9
12 -9 12 0 0 7 7 12 16 12 9 0 21 14 27 30 6 17 15 30 20 30 4 0 20 12 35 26
l27 26 -36 -5 c-37 -5 -73 6 -47 15 27 10 118 9 118 -2 0 -5 20 -10 44 -10 24
0 63 -7 87 -15 53 -19 73 -15 119 25 33 28 45 34 63 31 4 0 7 8 7 18 0 15 8
21 31 23 18 2 37 10 42 19 9 15 9 22 -4 53 -2 5 3 10 13 12 9 1 24 7 35 13 20
12 54 14 77 5z m766 -144 c0 -11 -7 -20 -15 -20 -8 0 -15 9 -15 20 0 11 7 20
15 20 8 0 15 -9 15 -20z m-880 -800 c0 -22 -4 -40 -10 -40 -5 0 -10 18 -10 40
0 22 5 40 10 40 6 0 10 -18 10 -40z m-153 -152 c-3 -7 -5 -2 -5 12 0 14 2 19
5 13 2 -7 2 -19 0 -25z m0 -125 c-2 -16 -4 -3 -4 27 0 30 2 43 4 28 2 -16 2
-40 0 -55z m0 -305 c-2 -13 -4 -3 -4 22 0 25 2 35 4 23 2 -13 2 -33 0 -45z
m975 -50 c3 -66 -6 -94 -21 -70 -4 8 -9 52 -9 100 -1 79 0 85 12 62 8 -14 16
-55 18 -92z m-972 -38 c0 -5 -4 -10 -10 -10 -5 0 -10 5 -10 10 0 6 5 10 10 10
6 0 10 -4 10 -10z m985 -70 c3 -6 -4 -10 -17 -10 -18 0 -20 2 -8 10 19 12 18
12 25 0z m60 0 c-27 -12 -35 -12 -35 0 0 6 12 10 28 9 24 0 25 -1 7 -9z
m-1055 -61 c0 -20 -15 -26 -25 -9 -9 15 3 43 15 35 5 -3 10 -15 10 -26z m0
-133 c0 -22 -23 -36 -40 -25 -13 8 -12 12 4 24 25 19 36 19 36 1z m1310 -2 c0
-8 -4 -12 -10 -9 -5 3 -10 10 -10 16 0 5 5 9 10 9 6 0 10 -7 10 -16z m6 -114
c3 -36 7 -76 10 -89 4 -21 6 -22 17 -7 10 13 12 -8 12 -102 0 -85 -4 -123 -14
-135 -8 -10 -12 -32 -9 -57 4 -40 -4 -50 -39 -50 -12 0 -13 23 -7 168 4 92 6
182 6 200 -4 115 -2 156 9 145 5 -5 11 -38 15 -73z m-1855 -17 c0 -5 2 -18 5
-30 5 -27 -13 -40 -32 -22 -16 17 -8 59 12 59 8 0 14 -3 15 -7z m-1201 -17 c0
-3 -4 -8 -10 -11 -5 -3 -10 -1 -10 4 0 6 5 11 10 11 6 0 10 -2 10 -4z m1734
-119 c4 -63 2 -97 -4 -97 -23 0 -32 49 -25 136 9 110 22 93 29 -39z m-1543 60
c-16 -16 -26 20 -10 40 13 15 14 14 17 -7 2 -12 -1 -27 -7 -33z m-57 -33 c23
-22 20 -43 -9 -56 -21 -9 -28 -8 -46 8 l-21 19 29 22 c33 27 28 26 47 7z
m1333 -126 c-2 -13 -4 -3 -4 22 0 25 2 35 4 23 2 -13 2 -33 0 -45z m-259 9 c2
-18 -1 -27 -11 -27 -15 0 -30 37 -21 52 10 17 29 2 32 -25z m517 -47 c3 -5 3
-21 -1 -35 -6 -26 -6 -26 -21 -5 -15 21 -12 50 6 50 5 0 12 -4 16 -10z m415
-20 c0 -5 -4 -10 -10 -10 -5 0 -10 5 -10 10 0 6 5 10 10 10 6 0 10 -4 10 -10z
m-68 -107 l47 -5 -36 -31 c-33 -29 -43 -32 -116 -36 -101 -4 -116 9 -49 43 28
14 54 31 57 37 4 6 16 8 29 4 11 -4 42 -10 68 -12z m-332 -43 c0 -5 -4 -10 -9
-10 -6 0 -13 5 -16 10 -3 6 1 10 9 10 9 0 16 -4 16 -10z m836 -127 c-3 -21 -5
-42 -5 -47 -1 -4 -8 -6 -16 -3 -8 4 -17 2 -20 -3 -3 -5 -18 -15 -33 -23 -37
-19 -148 -80 -202 -111 -25 -14 -52 -26 -62 -26 -9 0 -18 -4 -20 -8 -5 -13
-207 -112 -228 -112 -30 0 -32 16 -5 34 31 21 45 20 45 -1 0 -11 3 -14 8 -7 4
6 22 19 40 28 19 10 41 30 50 45 22 38 65 66 147 95 104 37 182 79 177 96 -3
12 -2 12 6 2 7 -10 14 -11 35 -1 27 12 36 29 16 29 -25 0 37 45 69 50 1 0 1
-17 -2 -37z m-759 -119 c-3 -3 -12 -4 -19 -1 -8 3 -5 6 6 6 11 1 17 -2 13 -5z
m-1883 -835 c-3 -5 -10 -7 -15 -3 -5 3 -7 10 -3 15 3 5 10 7 15 3 5 -3 7 -10
3 -15z m802 -286 c-10 -10 -19 5 -10 18 6 11 8 11 12 0 2 -7 1 -15 -2 -18z
m-162 -239 c12 -31 6 -43 -29 -55 -19 -7 -35 -16 -35 -20 0 -7 -164 -89 -180
-89 -5 0 -10 3 -10 8 1 11 26 42 35 42 10 0 174 110 181 121 9 14 31 10 38 -7z
m-3154 -162 c0 -5 -26 -7 -57 -5 -84 6 -88 11 -10 12 37 1 67 -3 67 -7z m1738
-40 c11 -6 -13 -22 -25 -17 -9 3 -85 5 -169 6 -84 0 -156 4 -159 9 -3 5 7 10
22 12 26 3 324 -6 331 -10z m3467 -28 c101 -26 144 -48 145 -74 0 -34 -161
-160 -206 -160 -7 0 -36 -12 -64 -27 -44 -23 -49 -28 -34 -35 12 -5 7 -6 -13
-2 -21 3 -33 1 -33 -5 0 -6 -10 -11 -22 -11 -13 -1 -48 -10 -78 -21 -30 -11
-89 -29 -130 -40 -41 -11 -84 -23 -95 -28 -39 -17 -81 -30 -139 -42 -38 -8
-53 -15 -41 -19 10 -3 -4 -7 -31 -7 -27 0 -119 -11 -204 -22 -207 -29 -434
-38 -550 -21 -50 7 -93 17 -97 23 -12 20 37 55 195 134 50 25 92 50 92 55 0
11 -2 10 -54 -7 -39 -13 -53 -14 -113 -1 -37 7 -73 11 -80 9 -7 -3 -13 -1 -13
5 0 5 -28 15 -62 22 -35 7 -67 15 -72 18 -21 12 34 21 131 21 73 1 153 11 284
36 113 22 205 34 243 33 51 -2 71 3 121 27 49 25 60 35 60 55 0 20 8 26 45 37
81 24 243 53 355 63 61 6 128 12 150 14 80 8 215 -5 310 -30z m-2278 -20 c-3
-3 -12 -4 -19 -1 -8 3 -5 6 6 6 11 1 17 -2 13 -5z m106 -21 c22 -13 2 -20 -33
-11 -48 12 -55 33 -7 23 17 -4 35 -9 40 -12z m-1790 -35 c7 -25 1 -38 -17 -38
-14 0 -29 38 -20 52 10 16 32 8 37 -14z m164 16 c-3 -3 -12 -4 -19 -1 -8 3 -5
6 6 6 11 1 17 -2 13 -5z m1739 -3 c16 -5 56 -17 89 -27 33 -10 67 -24 75 -31
12 -11 10 -13 -15 -13 -37 0 -235 60 -235 72 0 11 49 10 86 -1z m-1226 -41 c0
-5 -4 -10 -9 -10 -6 0 -13 5 -16 10 -3 6 1 10 9 10 9 0 16 -4 16 -10z m-440
-34 c0 -3 -4 -8 -10 -11 -5 -3 -10 -1 -10 4 0 6 5 11 10 11 6 0 10 -2 10 -4z
m57 -2 c-3 -3 -12 -4 -19 -1 -8 3 -5 6 6 6 11 1 17 -2 13 -5z m149 -9 c-8 -8
-23 -16 -33 -16 -18 -2 38 -12 135 -25 28 -3 52 -10 52 -15 0 -12 -77 -11 -85
1 -3 6 -31 10 -61 10 -34 0 -56 5 -59 13 -4 8 -28 12 -78 10 l-72 -1 65 8 c36
5 81 13 100 18 50 14 53 14 36 -3z m-1733 -71 c-14 -41 -18 -45 -42 -40 -14 2
-71 13 -126 23 l-100 18 73 8 c60 7 77 6 97 -7 28 -18 49 -21 39 -5 -3 6 1 10
12 9 34 -4 42 0 47 20 3 11 8 20 10 20 3 0 -1 -20 -10 -46z m1995 7 c-15 -5
-21 7 -13 26 7 17 8 17 15 -2 4 -11 3 -22 -2 -24z m733 -28 c5 -14 27 -32 51
-43 24 -11 36 -19 28 -18 -8 1 -22 -2 -30 -5 -46 -20 -172 -39 -207 -30 -19 4
-23 12 -23 40 0 26 4 34 14 30 8 -3 17 -1 20 6 4 7 8 8 11 2 3 -5 28 -8 56 -6
52 3 73 21 50 44 -8 8 -11 7 -11 -5 0 -14 -7 -16 -37 -11 -21 3 -41 11 -45 17
-5 7 -8 4 -8 -6 0 -10 -4 -18 -10 -18 -5 0 -10 4 -10 10 0 5 -7 7 -15 4 -8 -4
-15 -1 -15 4 0 6 19 13 43 16 110 15 121 12 138 -31z m863 -92 c7 -11 -27 -21
-71 -21 -43 0 -49 -15 -13 -30 30 -12 181 -9 230 5 15 4 6 -6 -24 -25 -45 -29
-53 -31 -103 -25 -50 6 -294 71 -283 76 55 20 255 35 264 20z m1305 -45 c-2
-2 -17 -6 -34 -10 -22 -5 -26 -4 -15 4 14 9 59 15 49 6z m-1445 -75 c3 -4 39
-14 81 -22 60 -10 79 -18 91 -37 23 -36 70 -50 200 -62 73 -7 122 -17 131 -25
7 -8 20 -12 28 -9 12 5 15 -4 15 -42 0 -77 -6 -81 -87 -59 -37 10 -72 21 -78
24 -12 8 -66 26 -124 41 -33 9 -41 14 -30 21 10 6 4 9 -21 8 -35 -1 -198 46
-234 67 -19 11 -19 13 -3 47 21 43 21 44 0 50 -14 4 -13 5 4 6 12 0 24 -3 27
-8z m929 -52 c-23 -23 -483 -63 -496 -43 -3 5 29 9 71 8 88 -1 341 22 387 35
42 13 51 13 38 0z m-933 -89 c0 -5 -7 -7 -15 -4 -8 4 -15 8 -15 10 0 2 7 4 15
4 8 0 15 -4 15 -10z m-37 -115 c-7 -21 -13 -19 -13 6 0 11 4 18 10 14 5 -3 7
-12 3 -20z m111 0 c19 -15 19 -15 -3 -15 -12 0 -29 7 -37 15 -14 13 -13 15 3
15 10 0 27 -7 37 -15z m451 -56 c27 -8 26 -8 -9 -4 -22 2 -44 10 -50 16 -8 9
-6 10 9 4 11 -4 34 -11 50 -16z m-530 -199 c8 -7 22 -9 31 -6 15 6 53 -3 109
-24 47 -19 61 -23 80 -27 26 -5 136 -43 155 -54 28 -16 -13 -10 -76 10 -37 13
-63 16 -68 10 -6 -6 -5 -9 3 -9 12 0 84 -31 170 -73 23 -12 46 -29 49 -37 3
-8 17 -25 31 -37 l26 -23 -35 7 c-19 3 -51 16 -70 28 -32 20 -173 86 -320 150
-49 22 -197 65 -273 80 -15 3 -25 10 -22 14 8 14 192 6 210 -9z m1844 -42 c20
-7 42 -19 49 -25 7 -7 21 -13 30 -14 10 0 5 -6 -13 -14 -21 -9 -61 -12 -140
-8 -60 2 -153 0 -205 -5 -53 -5 -99 -5 -104 -1 -6 5 5 9 26 9 39 0 60 15 31
23 -10 3 10 5 45 6 35 1 62 -3 62 -9 0 -5 23 -10 50 -10 61 0 68 20 8 21 -41
1 -42 1 -13 10 118 33 125 34 174 17z m-359 -38 c0 -6 -28 -10 -67 -9 -53 1
-61 3 -38 9 45 11 105 11 105 0z m-145 -40 c15 -7 9 -9 -25 -9 -33 -1 -41 2
-30 9 18 12 28 12 55 0z m92 4 c-3 -3 -12 -4 -19 -1 -8 3 -5 6 6 6 11 1 17 -2
13 -5z m-280 -20 c-3 -3 -12 -4 -19 -1 -8 3 -5 6 6 6 11 1 17 -2 13 -5z m600
-50 c-3 -3 -12 -4 -19 -1 -8 3 -5 6 6 6 11 1 17 -2 13 -5z m-182 -16 c-64 -15
-245 -30 -307 -25 -31 3 -60 1 -65 -4 -5 -5 -24 -6 -42 -3 -80 16 40 32 189
26 14 -1 57 2 95 7 39 5 93 8 120 9 l50 0 -40 -10z m-805 -28 c0 -5 -12 -10
-26 -10 -14 0 -23 4 -19 10 3 6 15 10 26 10 10 0 19 -4 19 -10z m149 -10 c86
0 123 -12 84 -27 -10 -4 -62 -7 -115 -7 -54 0 -98 -3 -98 -6 0 -3 -24 -5 -52
-6 -29 0 -69 -3 -88 -6 -19 -3 -26 -3 -15 -1 11 3 28 11 39 19 11 8 36 14 56
14 24 0 39 6 48 20 10 16 16 18 32 10 10 -5 59 -10 109 -10z m-298 -20 c6 0 7
-5 4 -11 -5 -6 -12 -4 -20 8 -7 10 -10 22 -7 28 4 5 8 2 10 -7 2 -10 8 -18 13
-18z m-686 -60 c8 -13 -5 -13 -25 0 -13 8 -13 10 2 10 9 0 20 -4 23 -10z"/>
<path d="M5440 5570 c0 -5 7 -10 16 -10 8 0 12 -5 9 -10 -4 -6 -3 -25 1 -43
l7 -32 9 33 c5 20 5 39 -2 52 -11 21 -40 28 -40 10z"/>
<path d="M4658 5423 c12 -2 30 -2 40 0 9 3 -1 5 -23 4 -22 0 -30 -2 -17 -4z"/>
<path d="M5065 1374 c-67 -10 -164 -36 -225 -60 -188 -74 -301 -127 -377 -177
-95 -62 -84 -80 45 -72 101 7 219 23 257 35 16 5 56 15 88 21 31 6 57 15 57
20 0 12 -12 11 -62 -5 -106 -36 -368 -63 -368 -38 0 26 300 166 445 208 52 15
126 10 270 -21 l60 -12 -46 -21 c-42 -18 -228 -84 -274 -96 -11 -3 3 -4 31 -1
80 6 275 80 377 142 42 26 49 57 15 67 -30 8 -255 16 -293 10z"/>
<path d="M4450 1266 c-19 -8 -64 -28 -99 -45 -36 -17 -70 -31 -77 -31 -6 0
-18 -7 -25 -16 -12 -15 -11 -16 11 -10 48 14 189 79 215 100 24 18 21 19 -25
2z"/>
<path d="M118 1233 c7 -3 16 -2 19 1 4 3 -2 6 -13 5 -11 0 -14 -3 -6 -6z"/>
<path d="M3798 913 c7 -3 16 -2 19 1 4 3 -2 6 -13 5 -11 0 -14 -3 -6 -6z"/>
<path d="M4048 853 c6 -2 18 -2 25 0 6 3 1 5 -13 5 -14 0 -19 -2 -12 -5z"/>
<path d="M4138 853 c7 -3 16 -2 19 1 4 3 -2 6 -13 5 -11 0 -14 -3 -6 -6z"/>
<path d="M4683 233 c9 -2 23 -2 30 0 6 3 -1 5 -18 5 -16 0 -22 -2 -12 -5z"/>
<path d="M2570 3909 c0 -5 -13 -15 -29 -20 -16 -6 -37 -21 -46 -35 -19 -30
-13 -30 24 -3 16 12 33 19 38 16 11 -7 5 -67 -7 -67 -9 0 -32 -51 -26 -57 2
-3 16 16 31 42 15 25 25 49 22 52 -4 3 0 14 7 25 8 11 12 28 9 39 -6 20 -23
27 -23 8z"/>
<path d="M1860 3591 c0 -5 7 -11 15 -15 8 -3 15 -12 15 -21 0 -8 4 -15 9 -15
5 0 20 -17 32 -37 25 -40 44 -63 53 -63 13 0 4 17 -25 49 -17 19 -42 52 -56
73 -24 36 -43 49 -43 29z"/>
<path d="M2025 3390 c3 -5 8 -10 11 -10 2 0 4 5 4 10 0 6 -5 10 -11 10 -5 0
-7 -4 -4 -10z"/>
<path d="M5422 3301 c-11 -6 -9 -9 6 -13 15 -4 19 -2 15 8 -6 16 -4 16 -21 5z"/>
<path d="M5330 3252 c-14 -9 -26 -20 -28 -24 -2 -5 -10 -8 -17 -8 -8 0 -59
-34 -114 -74 -128 -96 -187 -136 -234 -160 -42 -22 -73 -51 -41 -40 10 4 62
34 114 67 52 33 129 80 170 105 41 26 80 51 87 58 7 7 33 22 59 34 33 17 42
25 32 31 -9 6 -6 8 11 7 13 -2 26 3 28 10 7 18 -37 14 -67 -6z"/>
<path d="M1708 3214 c-92 -22 -180 -70 -270 -149 -10 -8 -21 -15 -25 -15 -23
-1 -113 -105 -145 -169 -21 -41 -21 -41 -9 -41 5 0 17 18 27 40 10 22 21 40
26 40 4 0 8 7 8 15 0 8 5 15 10 15 6 0 10 6 11 13 0 6 30 35 65 62 36 28 75
58 87 68 33 28 156 86 217 102 30 8 80 15 110 16 40 0 50 3 35 9 -29 12 -82
10 -147 -6z"/>
<path d="M2070 3102 c0 -5 9 -17 20 -27 18 -16 20 -16 20 -2 0 9 -9 21 -20 27
-11 6 -20 7 -20 2z"/>
<path d="M5550 3070 c0 -5 5 -10 10 -10 6 0 10 5 10 10 0 6 -4 10 -10 10 -5 0
-10 -4 -10 -10z"/>
<path d="M5562 2983 c8 -66 7 -68 -20 -91 -19 -16 -20 -19 -5 -10 12 7 24 10
27 8 5 -6 15 -58 26 -140 7 -51 8 -40 4 53 -3 64 -10 132 -15 150 -5 17 -9 47
-9 64 0 18 -4 33 -8 33 -5 0 -5 -30 0 -67z"/>
<path d="M4765 2990 c-3 -5 3 -10 15 -10 12 0 18 5 15 10 -3 6 -10 10 -15 10
-5 0 -12 -4 -15 -10z"/>
<path d="M4818 2969 c-2 -7 -28 -15 -58 -20 -62 -9 -188 -36 -180 -39 3 -1 25
-3 50 -4 25 -2 66 -6 91 -10 30 -5 49 -4 54 3 6 10 -26 16 -67 12 -10 -1 -18
3 -18 8 0 12 15 14 75 12 22 -1 44 -6 49 -11 18 -18 27 -11 20 16 -4 17 -2 29
7 35 11 7 11 9 -3 9 -9 0 -18 -5 -20 -11z"/>
<path d="M4630 2840 l-75 -6 65 -1 c36 -1 88 2 115 7 47 7 47 7 10 7 -22 0
-74 -3 -115 -7z"/>
<path d="M1244 2700 c0 -58 1 -81 3 -52 2 28 2 76 0 105 -2 28 -3 5 -3 -53z"/>
<path d="M4195 2760 c-16 -7 -17 -9 -3 -9 9 -1 20 4 23 9 7 11 7 11 -20 0z"/>
<path d="M5884 2719 c-3 -6 -1 -16 5 -22 8 -8 11 -5 11 11 0 24 -5 28 -16 11z"/>
<path d="M4750 2695 c-30 -13 -82 -37 -115 -54 -57 -29 -58 -30 -22 -24 21 3
55 14 75 24 20 11 42 19 49 19 7 0 13 5 13 10 0 6 16 10 36 10 19 0 33 -4 30
-9 -6 -8 49 -24 86 -25 10 -1 17 -5 15 -9 -4 -14 32 -29 53 -22 11 4 20 2 20
-4 0 -5 15 -13 33 -16 17 -4 35 -12 38 -17 4 -7 19 -6 42 3 33 12 47 9 207
-41 94 -29 173 -50 176 -47 5 5 -45 21 -316 106 -63 19 -64 20 -25 20 22 1 62
-6 89 -14 32 -10 53 -12 61 -5 10 8 185 -11 223 -25 6 -2 12 -1 12 4 0 17
-165 50 -255 51 -49 0 -117 4 -150 9 -49 7 -63 6 -77 -6 -18 -16 -41 -8 -151
48 -10 6 -22 7 -27 4 -14 -9 -59 5 -62 20 -2 10 -16 8 -58 -10z"/>
<path d="M5950 2680 c-8 -5 -10 -10 -5 -10 6 0 17 5 25 10 8 5 11 10 5 10 -5
0 -17 -5 -25 -10z"/>
<path d="M5097 2673 c-14 -13 -6 -20 18 -15 14 2 22 8 19 13 -6 11 -28 12 -37
2z"/>
<path d="M5601 2638 c2 -24 -1 -50 -5 -57 -5 -7 -3 -18 3 -24 6 -6 11 -34 12
-61 0 -28 4 -60 8 -71 7 -17 8 -15 13 10 6 32 6 51 -7 163 -8 79 -28 113 -24
40z"/>
<path d="M6018 2673 c7 -3 16 -2 19 1 4 3 -2 6 -13 5 -11 0 -14 -3 -6 -6z"/>
<path d="M4785 2660 c3 -5 8 -10 11 -10 2 0 4 5 4 10 0 6 -5 10 -11 10 -5 0
-7 -4 -4 -10z"/>
<path d="M5890 2639 c0 -33 11 -37 31 -12 10 11 10 14 2 9 -15 -9 -17 6 -3 20
6 6 3 10 -10 11 -16 1 -20 -4 -20 -28z"/>
<path d="M5960 2650 c-9 -6 -10 -10 -3 -10 6 0 15 5 18 10 8 12 4 12 -15 0z"/>
<path d="M3935 2630 c-16 -7 -17 -9 -3 -9 9 -1 20 4 23 9 7 11 7 11 -20 0z"/>
<path d="M5984 2620 c-21 -8 -42 -30 -29 -30 10 0 65 30 65 35 0 7 -11 5 -36
-5z"/>
<path d="M3811 2569 c-65 -35 -71 -40 -41 -32 41 11 136 62 115 62 -11 0 -45
-13 -74 -30z"/>
<path d="M5900 2574 c0 -14 6 -73 14 -132 8 -59 22 -170 31 -247 9 -77 20
-169 25 -205 5 -36 16 -139 25 -230 9 -91 21 -173 26 -183 6 -11 9 -20 7 -21
-2 -2 -34 -10 -73 -19 -90 -20 -216 -54 -221 -60 -2 -2 21 -10 51 -17 52 -13
74 -30 38 -30 -41 0 8 -18 77 -29 41 -6 90 -14 108 -17 29 -6 32 -4 32 19 0
23 -5 26 -90 42 -114 22 -148 43 -69 42 30 -1 78 5 107 12 l52 13 0 469 0 470
-27 -14 c-16 -8 -39 -18 -52 -22 -40 -12 -14 15 35 37 24 10 44 24 44 29 0 11
-29 5 -73 -17 -35 -16 -41 -5 -41 78 0 40 -4 58 -13 58 -7 0 -13 -12 -13 -26z"/>
<path d="M5388 2558 c5 -5 16 -8 23 -6 8 3 3 7 -10 11 -17 4 -21 3 -13 -5z"/>
<path d="M1251 2493 c-1 -39 4 -75 9 -78 12 -7 12 88 0 125 -6 18 -8 4 -9 -47z"/>
<path d="M5488 2523 c6 -2 18 -2 25 0 6 3 1 5 -13 5 -14 0 -19 -2 -12 -5z"/>
<path d="M5530 2467 c0 -8 -10 -19 -22 -25 -36 -17 -5 -14 37 4 29 12 35 18
24 25 -21 13 -39 11 -39 -4z"/>
<path d="M3490 2420 c-41 -22 -69 -40 -62 -40 7 0 20 4 30 10 9 5 41 19 70 31
28 12 52 25 52 30 0 14 -10 10 -90 -31z"/>
<path d="M4048 2443 c6 -2 18 -2 25 0 6 3 1 5 -13 5 -14 0 -19 -2 -12 -5z"/>
<path d="M4550 2440 c0 -5 5 -10 11 -10 5 0 7 5 4 10 -3 6 -8 10 -11 10 -2 0
-4 -4 -4 -10z"/>
<path d="M1270 2386 c0 -24 41 -106 52 -106 5 0 0 13 -11 29 -12 16 -21 37
-21 48 0 10 -5 25 -10 33 -8 13 -10 12 -10 -4z"/>
<path d="M3845 2370 c3 -5 10 -10 16 -10 5 0 9 5 9 10 0 6 -7 10 -16 10 -8 0
-12 -4 -9 -10z"/>
<path d="M3331 2345 c-30 -14 -52 -28 -49 -30 3 -3 34 8 69 25 35 16 57 30 49
30 -8 0 -39 -11 -69 -25z"/>
<path d="M4046 2325 c-3 -9 0 -15 8 -15 7 0 13 7 13 15 0 8 -4 15 -8 15 -4 0
-9 -7 -13 -15z"/>
<path d="M3250 2311 c0 -6 5 -13 10 -16 6 -3 10 1 10 9 0 9 -4 16 -10 16 -5 0
-10 -4 -10 -9z"/>
<path d="M5883 2200 c0 -47 2 -66 4 -42 2 23 2 61 0 85 -2 23 -4 4 -4 -43z"/>
<path d="M5495 2239 c-28 -19 -28 -20 -5 -13 42 11 70 23 70 29 0 11 -37 2
-65 -16z"/>
<path d="M4785 2229 c-4 -6 -5 -13 -2 -16 7 -7 27 6 27 18 0 12 -17 12 -25 -2z"/>
<path d="M5417 2203 c-16 -8 -27 -17 -24 -19 6 -7 54 13 62 25 8 14 -3 12 -38
-6z"/>
<path d="M4730 2200 c-12 -8 -11 -10 7 -10 12 0 25 5 28 10 8 13 -15 13 -35 0z"/>
<path d="M4635 2170 c-13 -5 -14 -9 -5 -9 8 0 24 4 35 9 13 5 14 9 5 9 -8 0
-24 -4 -35 -9z"/>
<path d="M3294 2128 l-19 -23 23 19 c21 18 27 26 19 26 -2 0 -12 -10 -23 -22z"/>
<path d="M4125 2130 c-3 -5 1 -10 9 -10 9 0 16 5 16 10 0 6 -4 10 -9 10 -6 0
-13 -4 -16 -10z"/>
<path d="M5742 2063 c5 -32 6 -68 3 -80 -3 -14 -1 -23 6 -23 8 0 10 18 5 61
-3 34 -6 70 -6 80 0 11 -4 19 -8 19 -5 0 -5 -26 0 -57z"/>
<path d="M1380 2085 c-14 -8 -20 -14 -15 -14 6 0 21 6 35 14 14 8 21 14 15 14
-5 0 -21 -6 -35 -14z"/>
<path d="M3060 2085 c7 -8 17 -15 22 -15 6 0 5 7 -2 15 -7 8 -17 15 -22 15 -6
0 -5 -7 2 -15z"/>
<path d="M4030 2075 c-11 -13 -10 -14 4 -9 9 3 16 10 16 15 0 13 -6 11 -20 -6z"/>
<path d="M3420 2060 c0 -5 7 -10 15 -10 8 0 15 5 15 10 0 6 -7 10 -15 10 -8 0
-15 -4 -15 -10z"/>
<path d="M4359 2053 c-12 -15 -12 -16 4 -10 10 4 23 7 28 7 5 0 9 5 9 10 0 16
-26 12 -41 -7z"/>
<path d="M5896 2059 c-4 -8 -2 -28 4 -43 5 -15 10 -51 10 -81 0 -30 4 -56 10
-60 9 -6 6 45 -10 150 -4 32 -9 44 -14 34z"/>
<path d="M2780 2051 c71 -17 104 -21 95 -12 -6 5 -37 11 -70 14 -43 4 -50 4
-25 -2z"/>
<path d="M3114 2048 c-3 -4 -25 -8 -50 -8 -24 0 -44 -3 -44 -7 0 -5 29 -8 64
-8 53 0 70 -4 102 -27 39 -28 56 -30 34 -3 -7 8 -10 24 -7 35 3 11 2 20 -1 21
-61 5 -94 4 -98 -3z"/>
<path d="M4653 2009 c-57 -28 -103 -55 -103 -60 0 -9 187 84 204 101 17 17 5
12 -101 -41z"/>
<path d="M3622 2028 c6 -18 28 -21 28 -4 0 9 -7 16 -16 16 -9 0 -14 -5 -12
-12z"/>
<path d="M3969 2021 c-13 -11 -21 -22 -18 -25 3 -3 16 5 29 19 28 30 22 33
-11 6z"/>
<path d="M4305 2020 c-3 -5 3 -10 14 -10 12 0 21 5 21 10 0 6 -6 10 -14 10 -8
0 -18 -4 -21 -10z"/>
<path d="M5040 2020 c0 -5 -9 -10 -19 -10 -11 0 -23 -4 -26 -10 -8 -13 8 -13
40 2 25 11 34 28 15 28 -5 0 -10 -4 -10 -10z"/>
<path d="M3410 2010 c20 -13 33 -13 25 0 -3 6 -14 10 -23 10 -15 0 -15 -2 -2
-10z"/>
<path d="M4185 1950 c-8 -13 5 -13 25 0 13 8 13 10 -2 10 -9 0 -20 -4 -23 -10z"/>
<path d="M4480 1928 c-11 -12 -18 -23 -16 -26 8 -7 66 29 61 38 -10 15 -23 12
-45 -12z"/>
<path d="M3944 1919 c-19 -22 -19 -22 4 -8 12 8 22 17 22 21 0 12 -6 9 -26
-13z"/>
<path d="M5766 1870 c4 -36 9 -94 11 -130 1 -36 7 -87 13 -115 6 -27 8 -60 5
-72 -4 -18 -1 -23 15 -23 21 0 26 10 11 25 -6 6 -15 62 -21 125 -15 160 -27
240 -35 248 -4 4 -4 -22 1 -58z"/>
<path d="M2442 1900 c0 -14 2 -19 5 -12 2 6 2 18 0 25 -3 6 -5 1 -5 -13z"/>
<path d="M2814 1810 c0 -52 1 -74 3 -47 2 26 2 68 0 95 -2 26 -3 4 -3 -48z"/>
<path d="M3870 1880 c-8 -5 -12 -11 -10 -14 3 -2 14 2 24 10 22 15 10 19 -14
4z"/>
<path d="M4000 1862 c-38 -18 -49 -28 -37 -30 28 -6 67 7 67 22 0 7 10 18 23
24 12 6 18 11 12 11 -5 0 -35 -12 -65 -27z"/>
<path d="M4618 1827 c-114 -56 -142 -74 -93 -63 16 4 32 11 35 14 6 9 105 58
143 72 15 5 27 14 27 20 0 12 13 18 -112 -43z"/>
<path d="M3804 1845 c-12 -8 -33 -12 -48 -9 -14 2 -26 0 -26 -5 0 -20 30 -18
76 4 27 13 42 24 34 24 -9 1 -25 -6 -36 -14z"/>
<path d="M4404 1838 l-19 -23 23 19 c21 18 27 26 19 26 -2 0 -12 -10 -23 -22z"/>
<path d="M4058 1843 c7 -3 16 -2 19 1 4 3 -2 6 -13 5 -11 0 -14 -3 -6 -6z"/>
<path d="M5929 1818 c-3 -15 -1 -76 6 -135 7 -59 11 -111 8 -115 -2 -5 6 -8
18 -8 16 0 19 3 12 13 -10 11 -16 54 -32 207 -4 48 -8 58 -12 38z"/>
<path d="M1717 1754 c-10 -13 -14 -24 -10 -24 9 0 36 40 31 45 -2 2 -11 -8
-21 -21z"/>
<path d="M3780 1758 c-21 -9 -22 -12 -7 -15 23 -6 47 3 47 17 0 12 -8 12 -40
-2z"/>
<path d="M4155 1761 c-18 -18 -484 -251 -502 -251 -17 -1 -17 -1 -1 -11 14 -8
61 12 220 93 112 57 205 105 208 108 7 7 78 41 115 56 l30 12 -30 1 c-17 1
-35 -3 -40 -8z"/>
<path d="M4437 1741 c-39 -25 -41 -29 -12 -24 14 3 25 9 25 14 0 5 9 9 21 9
11 0 17 5 14 10 -8 13 -15 12 -48 -9z"/>
<path d="M2783 1643 c-6 -27 -14 -56 -18 -65 -4 -10 -3 -18 3 -18 10 0 42 92
42 119 0 29 -16 6 -27 -36z"/>
<path d="M4203 1629 c-24 -10 -62 -28 -85 -38 -32 -15 -37 -20 -21 -20 12 -1
25 4 28 9 3 6 12 10 20 10 8 0 42 13 77 30 35 16 54 29 43 29 -11 0 -39 -9
-62 -20z"/>
<path d="M4035 1546 c-133 -60 -175 -81 -165 -84 7 -3 38 10 71 27 32 17 60
30 62 29 3 -2 77 34 77 38 0 7 -14 4 -45 -10z"/>
<path d="M3575 1520 c28 -12 37 -12 30 0 -3 6 -16 10 -28 9 -21 0 -21 -1 -2
-9z"/>
<path d="M5988 1473 c12 -2 30 -2 40 0 9 3 -1 5 -23 4 -22 0 -30 -2 -17 -4z"/>
<path d="M5730 1440 c-11 -7 -6 -10 20 -10 26 0 31 3 20 10 -8 5 -17 10 -20
10 -3 0 -12 -5 -20 -10z"/>
<path d="M10 1150 c-27 -17 -1 -23 32 -7 31 16 31 17 8 17 -14 0 -32 -4 -40
-10z"/>
<path d="M92 1109 c-73 -24 -92 -33 -92 -48 0 -15 11 -22 50 -30 65 -14 68
-14 44 3 -18 14 -18 15 -1 21 16 7 16 9 2 19 -13 9 -5 15 50 31 36 11 65 23
65 28 0 11 -19 8 -118 -24z"/>
<path d="M175 830 c-3 -5 3 -10 14 -10 11 0 23 5 26 10 3 6 -3 10 -14 10 -11
0 -23 -4 -26 -10z"/>
<path d="M42 790 c-18 -4 -36 -11 -40 -15 -10 -12 61 4 72 15 6 6 8 10 6 9 -3
-1 -20 -5 -38 -9z"/>
<path d="M3055 140 l-40 -7 47 -2 c26 0 50 4 53 9 7 11 1 11 -60 0z"/>
<path d="M2401 96 c27 -25 102 -76 107 -72 9 9 -80 75 -102 76 -5 0 -7 -2 -5
-4z"/>
<path d="M2758 93 c7 -3 16 -2 19 1 4 3 -2 6 -13 5 -11 0 -14 -3 -6 -6z"/>
<path d="M2730 60 c20 -13 63 -13 55 0 -3 6 -21 10 -38 10 -24 0 -28 -3 -17
-10z"/>
<path d="M2815 60 c-18 -8 -18 -9 5 -9 14 0 34 4 45 9 18 8 18 9 -5 9 -14 0
-34 -4 -45 -9z"/>
<path d="M2601 24 c15 -15 35 -24 45 -22 15 3 12 8 -17 26 -48 29 -59 28 -28
-4z"/>
<path d="M2953 44 c3 -4 2 -15 -4 -25 -11 -22 -11 -22 31 -8 l33 12 -24 13
c-25 14 -47 19 -36 8z"/>
</g>
</svg>
