<svg xmlns="http://www.w3.org/2000/svg" viewBox="0 0 1200 675" role="img" aria-labelledby="title desc">
  <title id="title">青甘大环线动态路书</title>
  <desc id="desc">青绿与赭红色调的西北群山、湖泊和七日环线路线图</desc>
  <defs>
    <linearGradient id="sky" x1="0" y1="0" x2="1" y2="1">
      <stop offset="0" stop-color="#e8dfc7"/>
      <stop offset="1" stop-color="#c8d9d2"/>
    </linearGradient>
    <filter id="shadow" x="-20%" y="-20%" width="140%" height="140%">
      <feDropShadow dx="0" dy="10" stdDeviation="14" flood-color="#153e3b" flood-opacity=".18"/>
    </filter>
  </defs>
  <rect width="1200" height="675" fill="url(#sky)"/>
  <circle cx="1015" cy="120" r="54" fill="#c85032" opacity=".92"/>
  <path d="M0 440 185 205l110 143 120-184 155 233 115-159 182 211 126-162 177 188v200H0Z" fill="#315d58" opacity=".93"/>
  <path d="M0 505 155 350l116 101 128-137 143 154 112-112 134 129 146-115 216 164v141H0Z" fill="#173f3b"/>
  <path d="M126 486C246 394 359 505 456 424s150-51 208-4 109 72 202 9 145-75 237 3" fill="none" stroke="#f4edda" stroke-linecap="round" stroke-width="22" opacity=".92"/>
  <path d="M126 486C246 394 359 505 456 424s150-51 208-4 109 72 202 9 145-75 237 3" fill="none" stroke="#c85032" stroke-dasharray="1 42" stroke-linecap="round" stroke-width="12"/>
  <g fill="#f4edda" stroke="#c85032" stroke-width="7" filter="url(#shadow)">
    <circle cx="126" cy="486" r="15"/><circle cx="291" cy="445" r="15"/><circle cx="456" cy="424" r="15"/>
    <circle cx="664" cy="420" r="15"/><circle cx="866" cy="429" r="15"/><circle cx="1006" cy="403" r="15"/><circle cx="1103" cy="432" r="15"/>
  </g>
  <g fill="#153e3b">
    <text x="78" y="95" font-family="Songti SC, STSong, serif" font-size="58" font-weight="700" letter-spacing="6">向西北去</text>
    <text x="82" y="143" font-family="PingFang SC, sans-serif" font-size="22" font-weight="600" letter-spacing="7">QINGHAI × GANSU</text>
  </g>
  <g fill="#f4edda" font-family="PingFang SC, sans-serif">
    <text x="80" y="600" font-size="28" font-weight="600" letter-spacing="3">7 天 6 夜 · 2,925 公里 · 逆时针</text>
    <text x="80" y="640" font-size="19" opacity=".75" letter-spacing="2">动态地图 · 分日路线 · 沿途导航</text>
  </g>
</svg>
